<mxfile host="app.diagrams.net" agent="Mozilla/5.0 (Windows NT 10.0; Win64; x64) AppleWebKit/537.36 (KHTML, like Gecko) Chrome/141.0.0.0 Safari/537.36" version="28.2.7">
  <diagram name="Page-1" id="VpBcfzxK5NvSwPpqE6Rd">
    <mxGraphModel dx="1426" dy="897" grid="1" gridSize="10" guides="1" tooltips="1" connect="1" arrows="1" fold="1" page="1" pageScale="1" pageWidth="850" pageHeight="1100" math="0" shadow="0">
      <root>
        <mxCell id="0" />
        <mxCell id="1" parent="0" />
        <mxCell id="aPDXrovYL3ez6hJ72jvM-1" value="Users&lt;span style=&quot;white-space: pre;&quot;&gt;&#x9;&lt;/span&gt;Product&lt;span style=&quot;white-space: pre;&quot;&gt;&#x9;&lt;/span&gt;Product type" style="swimlane;fontStyle=0;childLayout=stackLayout;horizontal=1;startSize=30;horizontalStack=0;resizeParent=1;resizeParentMax=0;resizeLast=0;collapsible=1;marginBottom=0;whiteSpace=wrap;html=1;" vertex="1" parent="1">
          <mxGeometry x="210" y="230" width="360" height="120" as="geometry" />
        </mxCell>
        <mxCell id="aPDXrovYL3ez6hJ72jvM-2" value="Item 1" style="text;strokeColor=none;fillColor=none;align=left;verticalAlign=middle;spacingLeft=4;spacingRight=4;overflow=hidden;points=[[0,0.5],[1,0.5]];portConstraint=eastwest;rotatable=0;whiteSpace=wrap;html=1;" vertex="1" parent="aPDXrovYL3ez6hJ72jvM-1">
          <mxGeometry y="30" width="360" height="30" as="geometry" />
        </mxCell>
        <mxCell id="aPDXrovYL3ez6hJ72jvM-3" value="Item 2" style="text;strokeColor=none;fillColor=none;align=left;verticalAlign=middle;spacingLeft=4;spacingRight=4;overflow=hidden;points=[[0,0.5],[1,0.5]];portConstraint=eastwest;rotatable=0;whiteSpace=wrap;html=1;" vertex="1" parent="aPDXrovYL3ez6hJ72jvM-1">
          <mxGeometry y="60" width="360" height="30" as="geometry" />
        </mxCell>
        <mxCell id="aPDXrovYL3ez6hJ72jvM-4" value="Item 3" style="text;strokeColor=none;fillColor=none;align=left;verticalAlign=middle;spacingLeft=4;spacingRight=4;overflow=hidden;points=[[0,0.5],[1,0.5]];portConstraint=eastwest;rotatable=0;whiteSpace=wrap;html=1;" vertex="1" parent="aPDXrovYL3ez6hJ72jvM-1">
          <mxGeometry y="90" width="360" height="30" as="geometry" />
        </mxCell>
        <mxCell id="aPDXrovYL3ez6hJ72jvM-5" value="Edit product type" style="ellipse;whiteSpace=wrap;html=1;" vertex="1" parent="1">
          <mxGeometry x="520" y="240" width="100" height="70" as="geometry" />
        </mxCell>
        <mxCell id="aPDXrovYL3ez6hJ72jvM-10" value="Product type" style="swimlane;fontStyle=0;childLayout=stackLayout;horizontal=1;startSize=30;horizontalStack=0;resizeParent=1;resizeParentMax=0;resizeLast=0;collapsible=1;marginBottom=0;whiteSpace=wrap;html=1;" vertex="1" parent="1">
          <mxGeometry x="380" y="470" width="120" height="120" as="geometry" />
        </mxCell>
        <mxCell id="aPDXrovYL3ez6hJ72jvM-11" value="Camera" style="text;strokeColor=none;fillColor=none;align=left;verticalAlign=middle;spacingLeft=4;spacingRight=4;overflow=hidden;points=[[0,0.5],[1,0.5]];portConstraint=eastwest;rotatable=0;whiteSpace=wrap;html=1;" vertex="1" parent="aPDXrovYL3ez6hJ72jvM-10">
          <mxGeometry y="30" width="120" height="30" as="geometry" />
        </mxCell>
        <mxCell id="aPDXrovYL3ez6hJ72jvM-12" value="Light" style="text;strokeColor=none;fillColor=none;align=left;verticalAlign=middle;spacingLeft=4;spacingRight=4;overflow=hidden;points=[[0,0.5],[1,0.5]];portConstraint=eastwest;rotatable=0;whiteSpace=wrap;html=1;" vertex="1" parent="aPDXrovYL3ez6hJ72jvM-10">
          <mxGeometry y="60" width="120" height="30" as="geometry" />
        </mxCell>
        <mxCell id="aPDXrovYL3ez6hJ72jvM-13" value="Drone" style="text;strokeColor=none;fillColor=none;align=left;verticalAlign=middle;spacingLeft=4;spacingRight=4;overflow=hidden;points=[[0,0.5],[1,0.5]];portConstraint=eastwest;rotatable=0;whiteSpace=wrap;html=1;" vertex="1" parent="aPDXrovYL3ez6hJ72jvM-10">
          <mxGeometry y="90" width="120" height="30" as="geometry" />
        </mxCell>
        <mxCell id="aPDXrovYL3ez6hJ72jvM-20" value="" style="html=1;verticalLabelPosition=bottom;align=center;labelBackgroundColor=#ffffff;verticalAlign=top;strokeWidth=2;strokeColor=#0080F0;shadow=0;dashed=0;shape=mxgraph.ios7.icons.compose;" vertex="1" parent="1">
          <mxGeometry x="510" y="500" width="19" height="19" as="geometry" />
        </mxCell>
        <mxCell id="aPDXrovYL3ez6hJ72jvM-21" value="" style="html=1;verticalLabelPosition=bottom;align=center;labelBackgroundColor=#ffffff;verticalAlign=top;strokeWidth=2;strokeColor=#0080F0;shadow=0;dashed=0;shape=mxgraph.ios7.icons.delete;" vertex="1" parent="1">
          <mxGeometry x="540" y="502" width="20" height="15" as="geometry" />
        </mxCell>
        <mxCell id="aPDXrovYL3ez6hJ72jvM-22" value="" style="html=1;verticalLabelPosition=bottom;align=center;labelBackgroundColor=#ffffff;verticalAlign=top;strokeWidth=2;strokeColor=#0080F0;shadow=0;dashed=0;shape=mxgraph.ios7.icons.delete;" vertex="1" parent="1">
          <mxGeometry x="540" y="535" width="20" height="15" as="geometry" />
        </mxCell>
        <mxCell id="aPDXrovYL3ez6hJ72jvM-23" value="" style="html=1;verticalLabelPosition=bottom;align=center;labelBackgroundColor=#ffffff;verticalAlign=top;strokeWidth=2;strokeColor=#0080F0;shadow=0;dashed=0;shape=mxgraph.ios7.icons.compose;" vertex="1" parent="1">
          <mxGeometry x="505" y="530" width="24" height="20" as="geometry" />
        </mxCell>
        <mxCell id="aPDXrovYL3ez6hJ72jvM-24" value="" style="html=1;verticalLabelPosition=bottom;labelBackgroundColor=#ffffff;verticalAlign=top;shadow=0;dashed=0;strokeWidth=2;shape=mxgraph.ios7.misc.select;fillColor=#0080f0;strokeColor=#ffffff;sketch=0;" vertex="1" parent="1">
          <mxGeometry x="503.5" y="570" width="32" height="20" as="geometry" />
        </mxCell>
        <mxCell id="aPDXrovYL3ez6hJ72jvM-25" value="" style="shape=image;html=1;verticalAlign=top;verticalLabelPosition=bottom;labelBackgroundColor=#ffffff;imageAspect=0;aspect=fixed;image=https://icons.diagrams.net/icon-cache1/34aL_volume_3_2_SE-1995/001_03-1148.png" vertex="1" parent="1">
          <mxGeometry x="380" y="600" width="24" height="24" as="geometry" />
        </mxCell>
      </root>
    </mxGraphModel>
  </diagram>
</mxfile>
